# Blender 3.4.0
# www.blender.org
mtllib cursor_ring.mtl
o Circle.001
v 0.000000 0.000000 -1.768842
v -0.345084 0.000000 -1.734855
v -0.676907 0.000000 -1.634197
v -0.982716 0.000000 -1.470739
v -1.250760 0.000000 -1.250760
v -1.470739 0.000000 -0.982716
v -1.634197 0.000000 -0.676907
v -1.734855 0.000000 -0.345084
v -1.768842 0.000000 0.000000
v -1.734855 0.000000 0.345084
v -1.634197 0.000000 0.676907
v -1.470739 0.000000 0.982716
v -1.250760 0.000000 1.250760
v -0.982716 0.000000 1.470739
v -0.676907 0.000000 1.634197
v -0.345084 0.000000 1.734855
v 0.000000 0.000000 1.768842
v 0.345084 0.000000 1.734855
v 0.676907 0.000000 1.634197
v 0.982716 0.000000 1.470739
v 1.250760 0.000000 1.250760
v 1.470739 0.000000 0.982716
v 1.634197 0.000000 0.676907
v 1.734855 0.000000 0.345084
v 1.768842 0.000000 0.000000
v 1.734855 0.000000 -0.345084
v 1.634197 0.000000 -0.676907
v 1.470739 0.000000 -0.982716
v 1.250760 0.000000 -1.250760
v 0.982716 0.000000 -1.470739
v 0.676907 0.000000 -1.634197
v 0.345084 0.000000 -1.734855
v 0.000000 0.000000 -1.440140
v -0.280957 0.000000 -1.412468
v -0.551118 0.000000 -1.330516
v -0.800099 0.000000 -1.197433
v -1.018333 0.000000 -1.018333
v -1.197433 0.000000 -0.800099
v -1.330516 0.000000 -0.551118
v -1.412468 0.000000 -0.280957
v -1.440140 0.000000 0.000000
v -1.412468 0.000000 0.280957
v -1.330516 0.000000 0.551118
v -1.197433 0.000000 0.800099
v -1.018333 0.000000 1.018333
v -0.800099 0.000000 1.197433
v -0.551118 0.000000 1.330516
v -0.280957 0.000000 1.412468
v 0.000000 0.000000 1.440140
v 0.280957 0.000000 1.412468
v 0.551118 0.000000 1.330516
v 0.800099 0.000000 1.197433
v 1.018333 0.000000 1.018333
v 1.197433 0.000000 0.800099
v 1.330516 0.000000 0.551118
v 1.412468 0.000000 0.280957
v 1.440140 0.000000 0.000000
v 1.412468 0.000000 -0.280957
v 1.330516 0.000000 -0.551118
v 1.197433 0.000000 -0.800099
v 1.018333 0.000000 -1.018333
v 0.800099 0.000000 -1.197433
v 0.551118 0.000000 -1.330516
v 0.280957 0.000000 -1.412468
vn -0.0000 1.0000 -0.0000
s 0
f 2//1 33//1 1//1
f 61//1 60//1 29//1
f 3//1 34//1 2//1
f 33//1 64//1 32//1
f 4//1 35//1 3//1
f 13//1 46//1 45//1
f 64//1 31//1 32//1
f 30//1 63//1 62//1
f 49//1 48//1 16//1
f 28//1 60//1 59//1
f 29//1 30//1 62//1
f 15//1 48//1 47//1
f 59//1 26//1 27//1
f 6//1 7//1 39//1
f 50//1 49//1 18//1
f 6//1 38//1 5//1
f 30//1 31//1 63//1
f 35//1 4//1 36//1
f 12//1 44//1 43//1
f 36//1 5//1 37//1
f 51//1 50//1 18//1
f 27//1 28//1 59//1
f 8//1 39//1 7//1
f 4//1 5//1 36//1
f 54//1 53//1 21//1
f 26//1 59//1 58//1
f 40//1 39//1 8//1
f 25//1 26//1 58//1
f 40//1 8//1 9//1
f 25//1 58//1 57//1
f 41//1 40//1 9//1
f 24//1 25//1 57//1
f 24//1 57//1 56//1
f 42//1 41//1 9//1
f 42//1 9//1 10//1
f 24//1 56//1 55//1
f 43//1 42//1 10//1
f 23//1 24//1 55//1
f 43//1 10//1 11//1
f 54//1 22//1 55//1
f 11//1 12//1 43//1
f 38//1 37//1 5//1
f 60//1 28//1 29//1
f 22//1 23//1 55//1
f 22//1 54//1 21//1
f 52//1 21//1 53//1
f 45//1 44//1 13//1
f 51//1 20//1 52//1
f 44//1 12//1 13//1
f 38//1 6//1 39//1
f 34//1 33//1 2//1
f 35//1 34//1 3//1
f 13//1 14//1 46//1
f 48//1 15//1 16//1
f 29//1 62//1 61//1
f 49//1 16//1 17//1
f 20//1 21//1 52//1
f 31//1 64//1 63//1
f 20//1 51//1 19//1
f 14//1 47//1 46//1
f 19//1 51//1 18//1
f 33//1 32//1 1//1
f 18//1 49//1 17//1
f 14//1 15//1 47//1
