# Blender 3.4.1
# www.blender.org
mtllib cylinder_uv.mtl
o Cylinder
v 0.000000 -1.000000 1.000000
v 0.000000 1.000000 1.000000
v -0.195090 -1.000000 0.980785
v -0.195090 1.000000 0.980785
v -0.382683 -1.000000 0.923880
v -0.382683 1.000000 0.923880
v -0.555570 -1.000000 0.831470
v -0.555570 1.000000 0.831470
v -0.707107 -1.000000 0.707107
v -0.707107 1.000000 0.707107
v -0.831470 -1.000000 0.555570
v -0.831470 1.000000 0.555570
vn -0.0980 -0.0000 0.9952
vn -0.2903 -0.0000 0.9569
vn -0.4714 -0.0000 0.8819
vn -0.6344 -0.0000 0.7730
vn -0.7730 -0.0000 0.6344
vt 0.999053 0.000000
vt 0.999053 1.000000
vt 0.800382 0.000000
vt 0.800382 1.000000
vt 0.601711 0.000000
vt 0.601711 1.000000
vt 0.403040 0.000000
vt 0.403040 1.000000
vt 0.204369 0.000000
vt 0.204369 1.000000
vt 0.005698 0.000000
vt 0.005698 1.000000
s 0
f 1/1/1 2/2/1 4/4/1 3/3/1
f 3/3/2 4/4/2 6/6/2 5/5/2
f 5/5/3 6/6/3 8/8/3 7/7/3
f 7/7/4 8/8/4 10/10/4 9/9/4
f 9/9/5 10/10/5 12/12/5 11/11/5
